<?xml version="1.0" encoding="UTF-8"?>
<svg width="32px" height="31px" viewBox="0 0 32 31" version="1.1" xmlns="http://www.w3.org/2000/svg" xmlns:xlink="http://www.w3.org/1999/xlink">
    <!-- Generator: Sketch 46.2 (44496) - http://www.bohemiancoding.com/sketch -->
    <title>Group 3</title>
    <desc>Created with Sketch.</desc>
    <defs></defs>
    <g id="Page-1" stroke="none" stroke-width="1" fill="none" fill-rule="evenodd">
        <g id="Group-2" transform="translate(-108.000000, -76.000000)" fill-rule="nonzero" fill="#FFFFFF">
            <g id="Group-3" transform="translate(108.000000, 76.000000)">
                <g id="noun_315_cc" transform="translate(15.000000, 19.000000)">
                    <path d="M12.18602,0 L7,0 L1.81398,0 L0,3.48278836 L7,12 L14,3.48278836 L12.18602,0 Z M11.7089,0.93807752 L12.7715,2.97848853 L10.8619,2.97848853 L11.7089,0.93807752 Z M10.80352,0.893428283 L10.02834,2.76159968 L8.09088,0.893428283 L10.80352,0.893428283 Z M8.99822,2.97848853 L7,2.97848853 L5.00178,2.97848853 L7,1.0516226 L8.99822,2.97848853 Z M5.90912,0.893428283 L3.9718,2.76159968 L3.19648,0.893428283 L5.90912,0.893428283 Z M2.2911,0.93807752 L3.1381,2.97848853 L1.2285,2.97848853 L2.2911,0.93807752 Z M1.44032,3.87191681 L3.50896,3.87191681 L5.61988,8.95764236 L1.44032,3.87191681 Z M4.43282,3.87191681 L7,3.87191681 L9.56732,3.87191681 L7,10.0567233 L4.43282,3.87191681 Z M8.37998,8.95779021 L10.4909,3.87206466 L12.55968,3.87206466 L8.37998,8.95779021 Z" id="Shape"></path>
                </g>
                <g id="noun_1071958_cc">
                    <path d="M8.27534066,6.62817391 C8.25564835,6.63617391 8.24404396,6.64904348 8.22751648,6.65913043 C0.611516484,7.51513043 -4.12202198,24.3526957 5.41643956,23.7067826 C9.78813187,23.4111304 13.2103736,17.6090435 14.0589011,13.8723478 C14.8522198,10.3749565 12.8534505,4.74643478 8.27534066,6.62817391 Z M2.74742857,21.8358261 C-1.96852747,18.5318261 3.3178022,9.06713043 8.21204396,7.48730435 C8.29854945,7.52626087 9.77371429,7.35165217 10.2762198,7.39721739 C10.2347253,7.54573913 10.2484396,7.71095652 10.3732747,7.85808696 C12.7145495,10.6257391 8.17265934,12.6723478 6.42004396,13.9972174 C5.0458022,15.0368696 3.78127473,16.2831304 3.11314286,17.8925217 C2.72597802,18.8253913 2.32228571,20.6330435 2.74742857,21.8358261 Z M11.5776703,17.1078261 C10.2895824,19.4031304 7.51437363,23.2149565 4.31191209,22.5255652 C4.27850549,22.4845217 4.23595604,22.4476522 4.17230769,22.4264348 C1.5672967,21.522087 4.76905495,16.8031304 5.53986813,16.0177391 C6.41336264,15.1273043 7.47182418,14.477913 8.50004396,13.7829565 C9.46778022,13.1290435 10.5199121,12.5516522 11.2,11.5666087 C12.0548571,10.3293913 12.1765275,8.94156522 11.4753407,7.73078261 C14.2846593,9.18573913 12.8942418,14.76 11.5776703,17.1078261 Z" id="Shape"></path>
                    <path d="M17.2388571,0.953391304 C17.1702857,0.932869565 16.6938022,1.21843478 16.6554725,1.27304348 C10.5174505,6.22330435 22.6060659,19.4483478 29.370022,14.8772174 C32.8559121,12.5206957 32.4613626,8.01356522 29.9414505,5.1613913 C26.8198681,1.62956522 21.8711209,-1.02991304 17.2388571,0.953391304 Z M28.6603956,14.0361739 C28.3667692,13.7238261 27.6982857,13.9286957 27.8829011,14.4128696 C27.8885275,14.4264348 27.8916923,14.4333913 27.8966154,14.445913 C22.3789011,16.7426087 13.8827253,7.38713043 16.6776264,2.39721739 C16.5035604,3.50886957 17.4157363,4.7346087 18.4235604,5.53913043 C19.8607473,6.68486957 21.5947253,7.3106087 23.3561319,7.75791304 C24.4926593,8.04556522 25.8138022,8.17426087 26.8170549,8.82713043 C28.0351648,9.69808696 28.596044,10.8278261 28.5003956,12.2166957 C28.3913846,12.832 28.455033,13.4344348 28.6825495,14.0222609 C28.6755165,14.0271304 28.6677802,14.032 28.6603956,14.0361739 Z M29.400967,13.4473043 C29.6291868,11.5850435 29.5085714,9.6413913 27.9247473,8.35721739 C26.5167473,7.216 15.5498901,5.12626087 17.6527473,1.88626087 C21.2265495,0.650086957 24.5963956,1.84521739 27.4472088,4.26226087 C30.1165714,6.52452174 32.5774066,10.3453913 29.400967,13.4473043 Z" id="Shape"></path>
                </g>
            </g>
        </g>
    </g>
</svg>