<?xml version="1.0" encoding="UTF-8"?>
<svg width="17px" height="34px" viewBox="0 0 17 34" version="1.1" xmlns="http://www.w3.org/2000/svg" xmlns:xlink="http://www.w3.org/1999/xlink">
    <!-- Generator: Sketch 46.2 (44496) - http://www.bohemiancoding.com/sketch -->
    <title>noun_434739_cc</title>
    <desc>Created with Sketch.</desc>
    <defs></defs>
    <g id="Page-1" stroke="none" stroke-width="1" fill="none" fill-rule="evenodd">
        <g id="Group-2" transform="translate(-17.000000, -72.000000)" fill-rule="nonzero" fill="#FFFFFF">
            <g id="noun_434739_cc" transform="translate(0.000000, 72.000000)">
                <g id="Group" transform="translate(17.000000, 0.000000)">
                    <path d="M8.23771429,0.78608 L4.34034286,0.78608 C4.03045714,0.78608 3.77885714,0.60996 3.77885714,0.39304 C3.77885714,0.17612 4.02997143,0 4.34034286,0 L8.2382,0 C8.54808571,0 8.79968571,0.17612 8.79968571,0.39304 C8.7992,0.6103 8.54808571,0.78608 8.23771429,0.78608 Z" id="Shape"></path>
                    <path d="M8.28677143,34 C8.27802857,34 8.27025714,34 8.262,33.99932 C4.6512,33.88984 1.69125714,33.04664 0.344371429,31.74478 C0.2788,31.68086 0.241885714,31.60538 0.238,31.52684 C0.220514286,31.16916 -0.181171429,22.73002 0.0990857143,20.08652 C0.254514286,18.61772 1.19631429,16.46824 2.10751429,14.39016 C2.89097143,12.60278 3.6312,10.91434 3.84734286,9.74916 C4.675,5.27952 1.41974286,0.61438 1.3872,0.5678 C1.30122857,0.44608 1.31045714,0.30158 1.41342857,0.18598 C1.51591429,0.07038 1.69611429,0 1.8904,0 L14.8686857,0 C15.1790571,0 15.4296857,0.17612 15.4296857,0.39304 C15.4296857,0.6103 15.1785714,0.78608 14.8686857,0.78608 L2.76274286,0.78608 C3.63314286,2.2032 5.66828571,6.03058 4.9606,9.8498 C4.7328,11.08128 3.97897143,12.80066 3.18094286,14.62068 C2.28771429,16.65762 1.36485714,18.76392 1.21865714,20.145 C0.961228571,22.57498 1.30462857,30.29876 1.35465714,31.37656 C2.53882857,32.41832 5.18014286,33.1194 8.31057143,33.21426 C8.62045714,33.22378 8.8604,33.40738 8.8468,33.6243 C8.83417143,33.8351 8.58548571,34 8.28677143,34 Z" id="Shape"></path>
                    <path d="M8.47182857,34 C8.17311429,34 7.92442857,33.8351 7.91131429,33.6243 C7.89771429,33.40738 8.13814286,33.22378 8.44754286,33.21426 C11.5779714,33.1194 14.2192857,32.41832 15.4034571,31.37656 C15.4534857,30.29876 15.7968857,22.57498 15.5394571,20.145 C15.3927714,18.76392 14.4699143,16.65796 13.5766857,14.62102 C12.7786571,12.80066 12.0258,11.08162 11.7975143,9.85014 C10.9242,5.13944 14.2236571,0.41718 14.3645143,0.21862 C14.5024571,0.02482 14.8385714,-0.05542 15.1173714,0.04114 C15.3942286,0.1377 15.5083714,0.37332 15.3704286,0.5678 C15.3374,0.61438 12.0821429,5.27952 12.9107714,9.74916 C13.1264286,10.91434 13.8671429,12.60278 14.6506,14.39016 C15.5618,16.46858 16.5036,18.61772 16.6590286,20.08652 C16.9388,22.73002 16.5376,31.1695 16.5201143,31.52684 C16.5167143,31.60504 16.4793143,31.68086 16.4132571,31.74478 C15.0668571,33.04664 12.1074,33.88984 8.49611429,33.99932 C8.48882857,34 8.48008571,34 8.47182857,34 Z" id="Shape"></path>
                    <path d="M5.3618,11.96018 C5.31274286,11.96018 5.2632,11.95542 5.21365714,11.9459 C4.91445714,11.88878 4.73814286,11.67254 4.81974286,11.46344 C6.63631429,6.8 3.85657143,2.38816 3.8284,2.34464 C3.70114286,2.14642 3.82694286,1.91386 4.10962857,1.82478 C4.39182857,1.73536 4.72454286,1.82342 4.85228571,2.02096 C4.9742,2.21068 7.82922857,6.72656 5.90337143,11.67016 C5.83488571,11.84526 5.60854286,11.96018 5.3618,11.96018 Z" id="Shape"></path>
                    <path d="M2.34308571,31.416 C2.34162857,31.416 2.33968571,31.416 2.33774286,31.416 C2.02737143,31.41362 1.77868571,31.23648 1.7816,31.01922 C1.82045714,28.21048 1.8972,20.7672 1.785,20.06102 C1.6388,19.13894 4.1344,13.70472 4.63614286,12.62488 C4.73231429,12.4185 5.04948571,12.30596 5.34382857,12.3726 C5.63865714,12.43958 5.79991429,12.6616 5.70422857,12.86798 C4.26408571,15.96776 2.822,19.47316 2.90117143,19.97432 C3.04348571,20.87192 2.91088571,30.61292 2.90457143,31.02704 C2.90165714,31.2426 2.65102857,31.416 2.34308571,31.416 Z" id="Shape"></path>
                    <path d="M12.3342286,11.34478 L4.09165714,11.34478 C3.78128571,11.34478 3.53017143,11.16866 3.53017143,10.95174 C3.53017143,10.73448 3.78177143,10.5587 4.09165714,10.5587 L12.3342286,10.5587 C12.6450857,10.5587 12.8957143,10.73482 12.8957143,10.95174 C12.8957143,11.16866 12.6450857,11.34478 12.3342286,11.34478 Z" id="Shape"></path>
                </g>
            </g>
        </g>
    </g>
</svg>