<?xml version="1.0" encoding="UTF-8"?>
<svg width="29px" height="35px" viewBox="0 0 29 35" version="1.1" xmlns="http://www.w3.org/2000/svg" xmlns:xlink="http://www.w3.org/1999/xlink">
    <!-- Generator: Sketch 46.2 (44496) - http://www.bohemiancoding.com/sketch -->
    <title>noun_48550</title>
    <desc>Created with Sketch.</desc>
    <defs></defs>
    <g id="Page-1" stroke="none" stroke-width="1" fill="none" fill-rule="evenodd">
        <g id="Group-2" transform="translate(-52.000000, 0.000000)" fill-rule="nonzero" fill="#FFFFFF">
            <g id="noun_48550" transform="translate(52.000000, 0.000000)">
                <circle id="Oval" cx="15" cy="8" r="8"></circle>
                <circle id="Oval" cx="14.5" cy="22.5" r="1"></circle>
                <circle id="Oval" cx="14.5" cy="26.5" r="1"></circle>
                <circle id="Oval" cx="14.5" cy="30.5" r="1"></circle>
                <path d="M19,17 L15.3148638,18.5499057 C15.0979222,18.3466815 14.8141347,18.2193449 14.5,18.2193449 C14.1858653,18.2193449 13.9020778,18.3466815 13.6851362,18.5499057 L10,17 L10,22 L13.7605942,20.5152632 C13.9664631,20.6794718 14.2207236,20.7810839 14.5,20.7810839 C14.7792764,20.7810839 15.0335369,20.6799005 15.2394058,20.5152632 L19,22 L19,17 Z" id="Shape"></path>
                <path d="M29,35 L0,35 L0,24.6619959 C0,20.4303657 3.52494482,17 7.87324596,17 C8.59546061,23.0775376 10.8920874,28.4468558 14.6094384,33.1387133 C18.3299501,28.1854067 20.5440043,22.8130126 21.1725839,17 C25.4955996,17 29,20.4103725 29,24.6173958 L29,35 L29,35 Z" id="Shape"></path>
            </g>
        </g>
    </g>
</svg>